# Apple ModelIO OBJ File: rain
mtllib rain.mtl
g 
v -0.2 -1 0.4
v -0.2 1 0.4
v -0.2 1 -0.4
v -0.2 -1 -0.4
v 0.2 1 -0.4
v 0.2 -1 -0.4
v 0.2 1 0.4
v 0.2 -1 0.4
vn -1 -0 -0
vn -0 -0 -1
vn 1 -0 -0
vn -0 -0 1
vn -0 -1 -0
vn -0 1 -0
vt -0.197422 -2.28969
vt 1.19742 -2.28969
vt 1.19742 -0.894844
vt -0.197422 -0.894844
vt 1.19742 0.5
vt -0.197422 0.5
vt 1.19742 1.89484
vt -0.197422 1.89484
vt 1.19742 3.28969
vt -0.197422 3.28969
vt -1.59227 0.5
vt -1.59227 1.89484
vt 2.59226 0.5
vt 2.59226 1.89484
usemtl Material.002
f 1/1/1 2/2/1 3/3/1 4/4/1 
f 4/4/2 3/3/2 5/5/2 6/6/2 
f 6/6/3 5/5/3 7/7/3 8/8/3 
f 8/8/4 7/7/4 2/9/4 1/10/4 
f 4/11/5 6/6/5 8/8/5 1/12/5 
f 5/5/6 3/13/6 2/14/6 7/7/6 
s off
